<svg width="18" height="18" viewBox="0 0 18 18" fill="none" xmlns="http://www.w3.org/2000/svg">
<path d="M12.4996 11H11.7096L11.4296 10.73C12.6296 9.32999 13.2496 7.42 12.9096 5.39002C12.4396 2.61002 10.1196 0.390015 7.31963 0.0500154C3.08965 -0.469985 -0.470351 3.09 0.049649 7.31999C0.389649 10.12 2.60965 12.44 5.38965 12.91C7.41963 13.25 9.32963 12.63 10.7296 11.43L10.9996 11.71V12.5L15.2496 16.75C15.6596 17.16 16.3296 17.16 16.7396 16.75C17.1496 16.34 17.1496 15.67 16.7396 15.26L12.4996 11ZM6.49965 11C4.00965 11 1.99965 8.98999 1.99965 6.5C1.99965 4.01 4.00965 2.00002 6.49965 2.00002C8.98963 2.00002 10.9996 4.01 10.9996 6.5C10.9996 8.98999 8.98963 11 6.49965 11Z" fill="#252525"/>
</svg>
